# xmcd CD database file
#
# Track frame offsets:
#	150
#	13897
#	25527
#	37897
#	48487
#	61037
#	73502
#	84387
#	98045
#	112102
#	124837
#	139027
#	149562
#	161605
#	171782
#
# Disc length: 2469 seconds
#
# Revision: 1
# Processed by: cddbd v1.5.1PL0 Copyright (c) Steve Scherf et al.
# Submitted via: CDex 1.51
#
DISCID=c609a30f
DTITLE=Ray Charles - The Early Years [CDA)
DYEAR=1994
DGENRE=Blues
TTITLE0=Someday
TTITLE1=Baby Tell MeWhat I Have Done
TTITLE2=Rockin' Chair Blues
TTITLE3=Crazy About Me
TTITLE4=Can Anyone Ask For More
TTITLE5=I'm Glad For Your Sake
TTITLE6=Sentimental Blues
TTITLE7=I'm Going Down To The River
TTITLE8=Walkin' And Talkin'
TTITLE9=Snow Is Fallin'
TTITLE10=Blues Is My Middle Name
TTITLE11=Hey Now
TTITLE12=Goin' Down Slow
TTITLE13=Sittin' On Top Of The World
TTITLE14=This Love Of Mine
EXTD=YEAR: 1994
EXTT0=
EXTT1=
EXTT2=
EXTT3=
EXTT4=
EXTT5=
EXTT6=
EXTT7=
EXTT8=
EXTT9=
EXTT10=
EXTT11=
EXTT12=
EXTT13=
EXTT14=
PLAYORDER=
